<?xml version="1.0" encoding="utf-8"?>
<!-- Generator: Adobe Illustrator 24.3.0, SVG Export Plug-In . SVG Version: 6.00 Build 0)  -->
<svg version="1.1" id="Layer_1" xmlns="http://www.w3.org/2000/svg" xmlns:xlink="http://www.w3.org/1999/xlink" x="0px" y="0px"
	 viewBox="0 0 841.9 595.3" style="enable-background:new 0 0 841.9 595.3;" xml:space="preserve">
<style type="text/css">
	.st0{fill:#DEDEDE;}
	.st1{opacity:0.2;}
	.st2{fill:#0055BB;}
	.st3{fill-rule:evenodd;clip-rule:evenodd;fill:#0055BB;}
</style>
<g>
	<g>
		<path class="st0" d="M179.1,320.7l-32.5,29.6c5,6.8,10.3,13.4,16,19.6l16.3-16C178.5,342,178.6,331,179.1,320.7z"/>
		<path class="st0" d="M184.6,274.5L139.7,313c-0.6,9.9-0.3,19.4,0.7,28.6c0.9,1.3,1.8,2.7,2.7,4l36.5-33.2
			C180.7,297.9,182.5,285.3,184.6,274.5z"/>
		<path class="st0" d="M166.6,374.2c4.7,5,9.7,9.7,14.8,14.3c-1-9.3-1.7-18.2-2.2-26.7L166.6,374.2z"/>
		<path class="st0" d="M187,263.3c5.1-21.2,11.6-36.4,16.7-46.2L151.5,260c-6,15.5-9.5,30.4-11.1,44.6l46.2-39.7
			C186.8,264.4,186.9,263.9,187,263.3z"/>
		<path class="st0" d="M190.4,194.4c-15,18.6-26.1,36.6-34,54l51-41.9C201.5,203.4,195.8,199.3,190.4,194.4z"/>
		<path class="st0" d="M419.2,231.8l0.9-1h39.2l3.6-7.5l-5.1-33.2l-36.4-7.9l-17.4,3h-51.6l-21.3-10.6h-61.9
			c-41.9-11-67.7,8.7-74.9,15.4c15.5,14.2,32.8,20.3,51.5,18.2l0.7,5.8c-2.6,0.3-5.2,0.5-7.8,0.5c-8.2,0-16.3-1.6-24-4.6
			c-4.3,6.5-14.8,24.5-22.2,55.3c-6.7,27.7-11.7,70.5-4.6,128.9c42,34.6,95.8,55.4,154.4,55.4c25.6,0,50.3-4,73.5-11.3l-54.5-138
			l-12.9,11.4l-95.2-0.2l-34.6-41.2l4.5-3.8l32.9,39.2l90.2,0.2l44.6-39.5l-13.8-19.7v-44.2h5.9v42.3l12.3,17.7l0,0l0.4,0.5l1.2-1.2
			h48.6l12.2-12.2l-6.6-6.6v-6.1h-28.6c-10.2,10.9-24.4,13-25,13.1l-0.4-2.9l-0.4-2.9C397,243.9,410.4,241.9,419.2,231.8z
			 M425.3,190.2l7.2,8.7h18.8v5.9h-21.5l-9-10.8L425.3,190.2z M310.1,216c-7.3,0-13.2-5.9-13.2-13.2c0-7.3,5.9-13.2,13.2-13.2
			c7.3,0,13.2,5.9,13.2,13.2C323.3,210.1,317.4,216,310.1,216z"/>
	</g>
	<g>
		<g>
			<g>
				<g class="st1">
					<g>
						<g>
							<g id="XMLID_2_">
								<g>
									<path class="st2" d="M374.6,286.3"/>
								</g>
							</g>
						</g>
					</g>
				</g>
				<g>
					<g>
						<path class="st2" d="M342.4,218.2c8.3-15.7,14.8-32.2,18.7-46c-1.5-0.2-3-0.3-4.6-0.5c-3.8,13-9.9,28.8-18.1,44.4
							c-1.5,2.9-3.1,5.7-4.7,8.5c2.2-0.7,4.4-1.5,6.6-2.3C340.9,220.9,341.6,219.5,342.4,218.2z"/>
						<path class="st2" d="M284.1,187.4c1-1.9,2-3.7,3-5.5c-2.2,0.7-4.3,1.4-6.4,2.1c-0.2,0.4-0.5,0.8-0.7,1.3
							c-9.2,17.4-15.8,34.4-19.6,49.4c1.5,0.1,3,0.2,4.6,0.3C268.7,221,274.9,204.7,284.1,187.4z"/>
						<g>
							<path class="st2" d="M275.2,209.2c-0.7,1.6-1.4,3.2-2,4.8c6.6,5.9,14.8,11.4,24.2,16c9.7,4.7,19.6,7.9,28.9,9.4
								c1-1.4,1.9-2.9,2.8-4.4c-9.4-1.2-19.7-4.4-29.7-9.3C290,221.1,281.7,215.3,275.2,209.2z"/>
							<path class="st2" d="M358.6,199.5c-7.5-10-19.5-19.3-33.6-26.1c-13.7-6.7-28-10.4-40.3-10.4c-13.6,0-23.2,4.4-27.2,12.5
								c-4.9,10,0.2,23.1,12.1,35.1c0.7-1.6,1.3-3.3,2-4.9c-9.3-10-13.5-20.6-9.9-28.1c3-6.2,11.4-9.8,22.9-9.8
								c11.6,0,25.2,3.5,38.2,9.9c13.4,6.6,24.7,15.3,31.8,24.7c6.7,8.9,8.8,17.2,5.8,23.4c-3,6.2-11.4,9.8-22.9,9.8
								c-1.1,0-2.3-0.1-3.4-0.1c-1,1.5-1.9,3.1-2.9,4.6c2.1,0.2,4.2,0.3,6.3,0.3c13.6,0,23.2-4.4,27.2-12.5
								C368.7,220,366.5,210,358.6,199.5z"/>
						</g>
						<path class="st2" d="M329.9,230.6c-19,30.8-41.8,52.6-56.2,52.6c-1.9,0-3.6-0.4-5.1-1.2c-7.8-4.1-9.9-20-4.8-42.4
							c-1.6-0.1-3.1-0.2-4.6-0.3c-5.2,23.5-3.1,41.3,7.3,46.7c2.1,1.1,4.6,1.7,7.2,1.7c17.1,0,42.1-23.9,62.8-59.3
							C334.4,229.3,332.2,230,329.9,230.6z"/>
					</g>
					<g>
						<path class="st2" d="M317.2,227.7c-3.7,0.9-7.4,1.6-11.1,2.3c3,1.2,5.9,2.2,8.8,3.1c1.1-0.2,2.2-0.5,3.3-0.7
							c15.7-3.6,30.3-8.7,42.5-14.7c-0.3-1.5-0.7-3-1.3-4.6C347.5,219,332.9,224.1,317.2,227.7z"/>
						<path class="st2" d="M259.8,186.6c0.2,1.5,0.6,3.1,1.1,4.7c11.6-6,26.6-11.6,44.3-15.7c2.2-0.5,4.3-1,6.5-1.4
							c-3.1-1.1-6.1-2.1-9.1-2.9C286.2,175.3,271.6,180.6,259.8,186.6z"/>
						<path class="st2" d="M297.4,231.4c-8.2,1.1-16.2,1.7-23.6,1.7c-22.4,0-37.5-5.2-39.4-13.6c-1.6-7.1,6.6-16.8,22.3-25.8
							c-0.6-1.6-1-3.1-1.3-4.7c-17.8,10-28,21.5-25.6,31.5c2.6,11,18.6,17.3,44.1,17.3c9.9,0,20.8-1,31.9-2.9
							C302.8,233.9,300.1,232.7,297.4,231.4z"/>
						<path class="st2" d="M392.7,182.8c-2.5-11-18.6-17.3-44.1-17.3c-11.3,0-23.9,1.3-36.6,3.8c2.8,1,5.6,2.1,8.4,3.3
							c9.8-1.6,19.4-2.4,28.2-2.4c22.4,0,37.5,5.2,39.4,13.6c1.5,6.4-4.9,14.8-17.5,22.9c-2.2,1.4-4.5,2.7-6.9,4
							c0.6,1.6,1.1,3.1,1.5,4.6c2.8-1.5,5.5-3.1,8-4.6C387.8,201.4,394.7,191.4,392.7,182.8z"/>
					</g>
				</g>
			</g>
			<path class="st3" d="M323.3,202.1c0,7.3-5.9,13.2-13.2,13.2c-7.3,0-13.2-5.9-13.2-13.2c0-7.3,5.9-13.2,13.2-13.2
				C317.4,188.9,323.3,194.8,323.3,202.1z"/>
		</g>
		<g>
			<path class="st2" d="M290.5,175.9c1.7-2.8,3.4-5.6,5.2-8.3c-1.7-0.3-3.4-0.5-5.1-0.7c-2.2,3.5-4.4,7.1-6.5,10.9
				C286.2,177.2,288.4,176.5,290.5,175.9z"/>
			<path class="st2" d="M298.6,163.3c17.6-25.7,37.2-43.1,50-43.1c1.9,0,3.6,0.4,5.1,1.2c8.3,4.4,10.1,22.1,3.8,46.7
				c1.6,0.1,3.1,0.3,4.6,0.5c6.5-25.7,4.8-45.5-6.2-51.3c-2.2-1.1-4.6-1.7-7.2-1.7c-15,0-36.1,18.4-55.1,46.9
				C295.2,162.7,296.9,163,298.6,163.3z"/>
		</g>
	</g>
	<g>
		<g>
			<path class="st2" d="M401.3,323.5v-52.1l-24.6,31l-24.7-31v52.1h-11.3v-73.3h6.6l29.4,37.2l29.4-37.2h6.5v73.3H401.3z"/>
			<path class="st2" d="M467.2,323.5v-51.7l-38.7,51.7h-6.6v-73.3h11.3v51.7l38.7-51.7h6.6v73.3H467.2z"/>
			<path class="st2" d="M642.9,323.5v-51.7l-38.7,51.7h-6.6v-73.3h11.3v51.7l38.7-51.7h6.6v73.3H642.9z"/>
		</g>
	</g>
	<g>
		<g>
			<path class="st2" d="M553.2,225.9v-13.1H540v13.1h-6.7v-31.9h6.7V207h13.1v-12.9h6.7v31.9H553.2z"/>
			<path class="st2" d="M587.5,225.9v-20.1l-16.1,20.1h-3.9v-31.9h6.7v20.1l16.1-20.1h4v31.9H587.5z"/>
			<path class="st2" d="M620,225.9v-7.8h-3.8c-3.3,0.1-4.2,0.8-6.8,4.6l-2.2,3.2h-7.5l2.9-4.2c2.1-3.1,3.6-4.7,5.1-5.6
				c-4.6-1.7-7.3-5.3-7.3-10c0-6.7,5.2-12,14.7-12h11.6v31.9H620z M614.5,200c-4.4,0-7.8,2-7.8,6.1c0,4.3,3.4,6.1,7.8,6.1h5.5V200
				H614.5z"/>
			<path class="st2" d="M637.8,225.9l7-11.5l-12.3-20.4h7.6l8.5,13.9l8.5-13.9h7.6l-19.4,31.9H637.8z"/>
		</g>
	</g>
	<g>
		<path class="st2" d="M563.9,252.8c-8.7,0-16.2,4.5-20.2,10.9v-13.5h-11.3v32.9c0,11.3-8.4,19.5-19,19.5c-10.7,0-19-8.2-19-19.5
			c0-11.3,8.4-19.6,19-19.6c5.6,0,10.6,2.3,14.1,6.2v-11.5c-4.1-3.3-9.4-5.4-15.2-5.4c-17.5,0-29.3,13.4-29.3,30.2
			c0,16.8,11.8,30.1,29.3,30.1c8.7,0,16.2-4.4,20.2-10.8v21l11.5,0v-41.9l0,0c0.7-10.5,8.8-18.1,19-18.1c10.7,0,19,8.3,19,19.6
			c0,11.3-8.4,19.5-19,19.5c-5.6,0-10.5-2.3-13.9-6v11.6c4,3.1,9.2,5.1,15,5.1c17.4,0,29.2-13.3,29.2-30.1
			C593.1,266.2,581.2,252.8,563.9,252.8z"/>
	</g>
</g>
</svg>
